<?xml version="1.0" encoding="UTF-8" standalone="no"?>
<svg
   id="Layer_1_Image"
   data-name="Layer 1 Image"
   version="1.1"
   viewBox="0 0 154.0385 99.99815"
   sodipodi:docname="logo_red.svg"
   inkscape:version="1.2.2 (b0a8486541, 2022-12-01)"
   width="154.0385"
   height="99.998146"
   xmlns:inkscape="http://www.inkscape.org/namespaces/inkscape"
   xmlns:sodipodi="http://sodipodi.sourceforge.net/DTD/sodipodi-0.dtd"
   xmlns="http://www.w3.org/2000/svg"
   xmlns:svg="http://www.w3.org/2000/svg">
  <sodipodi:namedview
     id="namedview190"
     pagecolor="#ffffff"
     bordercolor="#000000"
     borderopacity="0.25"
     inkscape:showpageshadow="2"
     inkscape:pageopacity="0.0"
     inkscape:pagecheckerboard="0"
     inkscape:deskcolor="#d1d1d1"
     showgrid="false"
     inkscape:zoom="3.1572405"
     inkscape:cx="70.472933"
     inkscape:cy="50.993898"
     inkscape:window-width="1262"
     inkscape:window-height="460"
     inkscape:window-x="12"
     inkscape:window-y="837"
     inkscape:window-maximized="1"
     inkscape:current-layer="Layer_1_Image" />
  <defs
     id="defs65">
    <style
       id="style63">.cls-1{fill:#b12526}</style>
  </defs>
  <rect
     style="fill:#fdfdfd;fill-opacity:1;stroke-width:4.96252"
     id="rect349"
     width="154.0385"
     height="99.998146"
     x="0"
     y="0" />
  <g
     id="g1378"
     transform="translate(37.616505,9.8179513)">
    <path
       id="path69"
       d="m 41.52,4.32 c 2.13,2.21 4.24,4.44 6.39,6.62 l 33,33.35 c 0.14,0.14 0.27,0.29 0.35,0.38 L 76.17,50 41.47,15.26 6.86,49.88 1.21,44.29 l 6,-6 c 4.433,-4.38 8.87,-8.76 13.31,-13.14 6.667,-6.613 14.333,-14.21 21,-20.83 0.278,-0.316 -0.235,0.35 0,0 z"
       class="cls-1"
       style="display:inline;fill:#b12526"
       transform="translate(-1.21,-4.32)" />
    <path
       id="path71"
       d="M 41.29,24.64 71.37,54.71 41,84.77 11.25,54.67 Z M 50.71,61 a 3.74,3.74 0 0 1 0,-0.58 4.22,4.22 0 0 0 -2,-4.47 4.38,4.38 0 0 0 -4.91,0.65 c -2.17,2 -2.12,5.3 0.11,7.73 a 8.71,8.71 0 0 0 14.4,-2.63 c 1.79,-3.95 0.78,-8.51 -2.6,-12 Q 51,44.89 46.28,40 c -1.64,-1.73 -3.22,-3.52 -4.83,-5.28 -0.46,0.4 -0.57,0.46 -0.66,0.54 -5,5 -10.11,9.9 -15.08,14.94 a 10.07,10.07 0 0 0 -2.92,8.56 9.23,9.23 0 0 0 5.76,7.68 7.94,7.94 0 0 0 8.26,-1.14 6.14,6.14 0 0 0 2.81,-5.86 4.58,4.58 0 0 0 -4.29,-4 4.1,4.1 0 0 0 -4.25,3.46 10.9,10.9 0 0 0 0,2 2.76,2.76 0 0 1 -1.84,-3.64 12.38,12.38 0 0 1 2.37,-3.95 c 2.9,-3.09 6,-6 9,-9 a 5.72,5.72 0 0 1 0.57,-0.47 7,7 0 0 1 0.56,0.48 c 2.93,3.06 5.91,6.07 8.74,9.22 a 11.72,11.72 0 0 1 2.17,3.67 2.89,2.89 0 0 1 -1.94,3.79 z"
       class="cls-1"
       transform="translate(-1.21,-4.32)"
       style="display:inline" />
  </g>
</svg>
